<svg width="116" height="20" viewBox="0 0 116 20" fill="none" xmlns="http://www.w3.org/2000/svg">
<path d="M0 9.53472C0 3.90579 4.02067 0 9.53472 0C12.5215 0 14.5893 0.689263 15.9678 1.26364V4.70993H15.6232C14.1298 2.06778 12.5215 0.689263 9.41985 0.689263C5.74382 0.689263 3.33142 4.25042 3.33142 9.53472C3.33142 14.7041 5.39919 18.3802 9.41985 18.3802C11.6025 18.3802 13.0959 17.4612 13.0959 15.9678V13.6703C13.0959 11.8322 12.981 10.7984 11.3727 10.6835V10.3388H17.1165V10.6835C16.3124 10.7984 16.1975 11.8322 16.1975 13.6703V17.2314C14.5893 18.1504 12.1769 19.0694 9.30497 19.0694C3.67604 19.0694 0 15.1636 0 9.53472Z" fill="#292929"/>
<path d="M21.5974 12.7523V3.79199C21.5974 1.95397 21.4825 0.690335 19.6445 0.690335V0.345703H26.7668V0.690335C24.814 0.690335 24.814 1.95397 24.814 3.79199V12.6374C24.814 16.4284 26.1925 18.1515 29.5239 18.1515C32.2809 18.1515 34.4635 16.4284 34.4635 12.6374V5.28538C34.4635 2.87298 33.8892 0.575452 32.2809 0.575452V0.345703H37.3354V0.690335C35.7272 0.690335 35.3826 2.98786 35.3826 5.40025V12.7523C35.3826 17.1176 33.085 19.1854 28.7197 19.1854C24.0098 19.0705 21.5974 17.1176 21.5974 12.7523Z" fill="#292929"/>
<path d="M56.1736 14.016C56.1736 16.5432 53.9909 18.7259 48.5917 18.7259H40.4355V18.3812C42.3884 18.3812 42.3884 17.1176 42.3884 15.2796V3.79199C42.3884 1.95397 42.2736 0.690335 40.4355 0.690335V0.345703H48.2471C53.0719 0.345703 55.1397 2.18372 55.1397 4.711C55.1397 7.46802 52.7273 8.84653 50.3149 9.07628C53.1868 9.30604 56.1736 10.9143 56.1736 14.016ZM45.4901 1.95397V8.84654H47.5579C50.6595 8.84654 51.8083 7.23827 51.8083 5.05562C51.8083 2.41347 50.4298 1.03496 47.443 1.03496H46.524C45.8347 1.03496 45.4901 1.26471 45.4901 1.95397ZM52.7273 13.9011C52.7273 11.2589 50.8893 9.53579 47.6727 9.53579H45.4901V16.4284C45.4901 17.0027 45.4901 18.0366 47.7876 18.0366C50.7744 18.0366 52.7273 16.6581 52.7273 13.9011Z" fill="#292929"/>
<path d="M76.6217 18.4951V18.7248H69.0398V18.3802C70.6481 18.2653 71.2225 17.576 70.6481 16.0827L69.2696 12.6364H62.4919L62.0324 13.7851C60.7687 16.7719 60.9985 18.1504 62.9514 18.3802V18.7248H58.0117V18.3802C59.1605 18.1504 59.7349 16.657 61.1134 13.6703L66.8572 0H67.5464L74.0944 15.5083C74.7836 17.576 75.358 18.3802 76.6217 18.4951ZM68.9249 11.8322L65.9382 4.48017L62.8365 11.8322H68.9249Z" fill="#292929"/>
<path d="M96.6112 0.345703V0.690335C95.0029 0.690335 94.6583 2.64323 94.6583 5.40025V19.1854H94.0839L82.2517 2.98786V13.9011C82.2517 16.5432 82.8261 18.4961 84.5492 18.4961V18.7259H79.0352V18.3812C80.6434 18.3812 81.3327 16.4284 81.3327 13.7862V3.33248C81.3327 1.49446 80.2988 0.690328 79.0352 0.575452V0.345703H84.0897L93.7393 13.6713V5.28538C93.7393 2.52835 93.1649 0.575452 91.3269 0.575452V0.345703H96.6112Z" fill="#292929"/>
<path d="M115.565 0.345703V0.690335C114.416 0.805211 113.037 2.64323 111.544 5.40025L108.557 10.9143V15.2796C108.557 17.1176 108.672 18.3812 110.51 18.3812V18.7259H103.388V18.3812C105.341 18.3812 105.341 17.1176 105.341 15.2796V11.1441L101.205 3.56224C100.056 1.37959 99.4819 0.690328 98.6777 0.575452V0.345703H105.8V0.690335C104.192 0.805211 103.617 1.60934 104.307 2.98786L107.983 9.9953L110.51 5.1705C111.888 2.41347 112.463 0.920087 110.74 0.690335V0.345703H115.565Z" fill="#292929"/>
</svg>
