<!-- <?xml version="1.0" encoding="UTF-8"?> -->
<svg xmlns="http://www.w3.org/2000/svg" width="128" height="128" viewBox="0 0 128 128">
  <g id="Arrière-plan">
    <rect width="128" height="128" fill="#f0ece6"/>
    <path d="M3.24,8.03c0-3.13,2.25-5.29,5.28-5.29,1.68,0,2.82,.36,3.56,.7v1.9h-.18c-.83-1.43-1.72-2.21-3.4-2.21-2.05,0-3.34,1.96-3.34,4.88s1.15,4.86,3.36,4.86c1.22,0,2.05-.5,2.05-1.32v-1.27c0-1.04-.06-1.58-.95-1.64v-.17h3.17v.17c-.46,.06-.49,.6-.49,1.64v1.97c-.86,.53-2.23,1.01-3.83,1.01-3.2,0-5.2-2.13-5.2-5.23Z"/>
  </g>
  <!-- <g id="_léments" data-name="Éléments"/> -->
</svg>