<svg width="116" height="20" viewBox="0 0 116 20" fill="none" xmlns="http://www.w3.org/2000/svg">
<path d="M0 9.53472C0 3.90579 4.02067 0 9.53472 0C12.5215 0 14.5893 0.689263 15.9678 1.26364V4.70993H15.6232C14.1298 2.06778 12.5215 0.689263 9.41985 0.689263C5.74382 0.689263 3.33142 4.25042 3.33142 9.53472C3.33142 14.7041 5.39919 18.3802 9.41985 18.3802C11.6025 18.3802 13.0959 17.4612 13.0959 15.9678V13.6703C13.0959 11.8322 12.981 10.7984 11.3727 10.6835V10.3388H17.1165V10.6835C16.3124 10.7984 16.1975 11.8322 16.1975 13.6703V17.2314C14.5893 18.1504 12.1769 19.0694 9.30497 19.0694C3.67604 19.0694 0 15.1636 0 9.53472Z" fill="#FFFFFF"/>
<path d="M21.5974 12.7504V3.79003C21.5974 1.95202 21.4825 0.688382 19.6445 0.688382V0.34375H26.7668V0.688382C24.814 0.688382 24.814 1.95202 24.814 3.79003V12.6355C24.814 16.4264 26.1925 18.1495 29.5239 18.1495C32.2809 18.1495 34.4635 16.4264 34.4635 12.6355V5.28343C34.4635 2.87103 33.8892 0.573499 32.2809 0.573499V0.34375H37.3354V0.688382C35.7272 0.688382 35.3826 2.9859 35.3826 5.3983V12.7504C35.3826 17.1157 33.085 19.1834 28.7197 19.1834C24.0098 19.0686 21.5974 17.1157 21.5974 12.7504Z" fill="#FFFFFF"/>
<path d="M56.1736 14.014C56.1736 16.5413 53.9909 18.7239 48.5917 18.7239H40.4355V18.3793C42.3884 18.3793 42.3884 17.1157 42.3884 15.2776V3.79003C42.3884 1.95202 42.2736 0.688382 40.4355 0.688382V0.34375H48.2471C53.0719 0.34375 55.1397 2.18177 55.1397 4.70904C55.1397 7.46607 52.7273 8.84458 50.3149 9.07433C53.1868 9.30408 56.1736 10.9124 56.1736 14.014ZM45.4901 1.95202V8.84458H47.5579C50.6595 8.84458 51.8083 7.23631 51.8083 5.05367C51.8083 2.41152 50.4298 1.033 47.443 1.033H46.524C45.8347 1.033 45.4901 1.26276 45.4901 1.95202ZM52.7273 13.8991C52.7273 11.257 50.8893 9.53384 47.6727 9.53384H45.4901V16.4264C45.4901 17.0008 45.4901 18.0347 47.7876 18.0347C50.7744 18.0347 52.7273 16.6562 52.7273 13.8991Z" fill="#FFFFFF"/>
<path d="M76.6226 18.4951V18.7248H69.0408V18.3802C70.6491 18.2653 71.2234 17.576 70.6491 16.0827L69.2706 12.6364H62.4929L62.0334 13.7851C60.7697 16.7719 60.9995 18.1504 62.9524 18.3802V18.7248H58.0127V18.3802C59.1615 18.1504 59.7359 16.657 61.1144 13.6703L66.8582 0H67.5474L74.0953 15.5083C74.7846 17.576 75.359 18.3802 76.6226 18.4951ZM68.9259 11.8322L65.9392 4.48017L62.8375 11.8322H68.9259Z" fill="#FFFFFF"/>
<path d="M96.6112 0.34375V0.688382C95.0029 0.688382 94.6583 2.64127 94.6583 5.3983V19.1834H94.0839L82.2517 2.9859V13.8991C82.2517 16.5413 82.8261 18.4942 84.5492 18.4942V18.7239H79.0352V18.3793C80.6434 18.3793 81.3327 16.4264 81.3327 13.7842V3.33053C81.3327 1.49251 80.2988 0.688375 79.0352 0.573499V0.34375H84.0897L93.7393 13.6694V5.28343C93.7393 2.5264 93.1649 0.573499 91.3269 0.573499V0.34375H96.6112Z" fill="#FFFFFF"/>
<path d="M115.565 0.34375V0.688382C114.416 0.803258 113.037 2.64127 111.544 5.3983L108.557 10.9123V15.2776C108.557 17.1157 108.672 18.3793 110.51 18.3793V18.7239H103.388V18.3793C105.341 18.3793 105.341 17.1157 105.341 15.2776V11.1421L101.205 3.56028C100.056 1.37764 99.4819 0.688375 98.6777 0.573499V0.34375H105.8V0.688382C104.192 0.803258 103.617 1.60739 104.307 2.9859L107.983 9.99334L110.51 5.16854C111.888 2.41152 112.463 0.918134 110.74 0.688382V0.34375H115.565Z" fill="#FFFFFF"/>
</svg>
