<svg width="18" height="20" viewBox="0 0 18 20" fill="none" xmlns="http://www.w3.org/2000/svg">
<path d="M0 9.94292C0 4.31399 4.02067 0.408203 9.53472 0.408203C12.5215 0.408203 14.5893 1.09747 15.9678 1.67185V5.11813H15.6232C14.1298 2.47598 12.5215 1.09747 9.41985 1.09747C5.74382 1.09747 3.33142 4.65862 3.33142 9.94292C3.33142 15.1123 5.39919 18.7884 9.41985 18.7884C11.6025 18.7884 13.0959 17.8694 13.0959 16.376V14.0785C13.0959 12.2404 12.981 11.2066 11.3727 11.0917V10.7471H17.1165V11.0917C16.3124 11.2066 16.1975 12.2404 16.1975 14.0785V17.6396C14.5893 18.5586 12.1769 19.4776 9.30497 19.4776C3.67604 19.4776 0 15.5718 0 9.94292Z" fill="white"/>
</svg>
